{"title":"Australian Survivor - S03E03","uid":15699105,"size":1530517520,"categoryP":"video","categoryS":"hd___tv_shows","magnet":"?xt=urn:btih:4b0451a3e2fbd07ed0f15f07e066316876fb2706&amp;dn=Australian+Survivor+-+S03E03&amp;tr=udp%3A%2F%2Ftracker.leechers-paradise.org%3A6969&amp;tr=udp%3A%2F%2Fzer0day.ch%3A1337&amp;tr=udp%3A%2F%2Fopen.demonii.com%3A1337&amp;tr=udp%3A%2F%2Ftracker.coppersurfer.tk%3A6969&amp;tr=udp%3A%2F%2Fexodus.desync.com%3A6969","seeders":49,"leechers":13,"uploader":"riseagainstMPAA1","files":1,"time":1472461836,"description":"Hopefully Bullrout doesn't mind me continuing on this one. Send me a message on the forum Bullrout if you do :) Also let me know if you want to know how i managed to grab it :)\r\n\r\n\r\n\r\n\r\nAustralian Survivor - S03E03\r\n\r\n\r\n\r\n\r\nAustralian Survivor - S03E03.avi\r\nFormat                                   : AVI\r\nFormat/Info                              : Audio Video Interleave\r\nFile size                                : 1.43 GiB\r\nDuration                                 : 1 h 15 min\r\nOverall bit rate                         : 2 714 kb/s\r\nWriting library                          : VirtualDub build 35491/release\r\n\r\nVideo\r\nID                                       : 0\r\nFormat                                   : MPEG-4 Visual\r\nFormat profile                           : Advanced   \r\nFormat settings, BVOP                    : 2\r\nFormat settings, QPel                    : No\r\nFormat settings, GMC                     : No warppoints\r\nFormat settings, Matrix                  : Default (H.263)\r\nMuxing mode                              : Packed bitstream\r\nCodec ID                                 : XVID\r\nCodec ID/Hint                            : XviD\r\nDuration                                 : 1 h 15 min\r\nBit rate                                 : 2 609 kb/s\r\nWidth                                    : 1 024 pixels\r\nHeight                                   : 576 pixels\r\nDisplay aspect ratio                     : 16:9\r\nFrame rate                               : 25.000 FPS\r\nColor space                              : YUV\r\nChroma subsampling                       : 4:2:0\r\nBit depth                                : 8 bits\r\nScan type                                : Progressive\r\nCompression mode                         : Lossy\r\nBits/(Pixel*Frame)                       : 0.177\r\nStream size                              : 1.37 GiB (96%)\r\nWriting library                          : XviD 73\r\n\r\nAudio\r\nID                                       : 1\r\nFormat                                   : AC-3\r\nFormat/Info                              : Audio Coding 3\r\nMode extension                           : CM (complete main)\r\nFormat settings, Endianness              : Big\r\nCodec ID                                 : 2000\r\nDuration                                 : 1 h 15 min\r\nBit rate mode                            : Constant\r\nBit rate                                 : 96.0 kb/s\r\nChannel(s)                               : 2 channels\r\nChannel positions                        : Front: L R\r\nSampling rate                            : 44.1 kHz\r\nFrame rate                               : 28.711 FPS (1536 spf)\r\nCompression mode                         : Lossy\r\nDelay relative to video                  : 35 ms\r\nStream size                              : 51.4 MiB (4%)\r\nAlignment                                : Aligned on interleaves\r\nInterleave, duration                     : 40  ms (1.00 video frame)\r\nInterleave, preload duration             : 522  ms","torrent":{"xt":"urn:btih:4b0451a3e2fbd07ed0f15f07e066316876fb2706","amp;dn":"Australian+Survivor+-+S03E03","amp;tr":["udp%3A%2F%2Ftracker.leechers-paradise.org%3A6969","udp%3A%2F%2Fzer0day.ch%3A1337","udp%3A%2F%2Fopen.demonii.com%3A1337","udp%3A%2F%2Ftracker.coppersurfer.tk%3A6969","udp%3A%2F%2Fexodus.desync.com%3A6969"],"infoHash":"4b0451a3e2fbd07ed0f15f07e066316876fb2706","infoHashBuffer":{"type":"Buffer","data":[75,4,81,163,226,251,208,126,208,241,95,7,224,102,49,104,118,251,39,6]},"announce":[],"urlList":[]}}